/* XPM */
static char * galinette_xpm[] = {
"32 32 22 1",
" 	c None",
".	c #502D16",
"+	c #8F4B06",
"@	c #BB6011",
"#	c #D4691D",
"$	c #4F2C15",
"%	c #B75D15",
"&	c #D86F16",
"*	c #F57B25",
"=	c #EF7721",
"-	c #603514",
";	c #BB6016",
">	c #F67A24",
",	c #BB6117",
"'	c #502D15",
")	c #3B3B3B",
"!	c #CF6818",
"~	c #532E14",
"{	c #4F2C16",
"]	c #343434",
"^	c #3D3D3D",
"/	c #2F2F2F",
"               .......          ",
"           ...............      ",
"          .................     ",
"        .....................   ",
" +@#   $......         ......   ",
"  %&*=-.....             .....  ",
"   ;>,'$...    )          ..... ",
"    !~{...    ]^           .... ",
"     {'..      /           .... ",
"    .....                   ... ",
"    ....                        ",
"    ....                        ",
"   .....                        ",
"   .....                        ",
"   ....                         ",
"   ....                         ",
"   ....            .............",
"   ....            .............",
"   .....           .............",
"   .....           .............",
"   .....                    ....",
"    ....                    ....",
"    ....                    ....",
"    .....                   ....",
"     .....                  ....",
"     .....                  ....",
"      ......              ......",
"       ......           ........",
"        .........    .......... ",
"         ....................   ",
"           ................     ",
"              ..........        "};
